<svg width="24" height="24" viewBox="0 0 24 24" fill="none" xmlns="http://www.w3.org/2000/svg">
<path d="M16.263 19.6046L9.34649 12.5771C9.1948 12.4238 9.10972 12.2168 9.10972 12.0011C9.10972 11.7855 9.1948 11.5785 9.34649 11.4251L16.2615 4.39764C16.4131 4.24336 16.4981 4.0357 16.4981 3.81939C16.4981 3.60308 16.4131 3.39542 16.2615 3.24114C16.1874 3.16517 16.0989 3.10479 16.0011 3.06356C15.9034 3.02234 15.7983 3.0011 15.6922 3.0011C15.5861 3.0011 15.4811 3.02234 15.3833 3.06356C15.2856 3.10479 15.1971 3.16517 15.123 3.24114L8.20799 10.2671C7.7536 10.7299 7.49902 11.3526 7.49902 12.0011C7.49902 12.6497 7.7536 13.2724 8.20799 13.7351L15.123 20.7611C15.1971 20.8373 15.2857 20.8979 15.3836 20.9393C15.4815 20.9806 15.5867 21.002 15.693 21.002C15.7993 21.002 15.9045 20.9806 16.0024 20.9393C16.1003 20.8979 16.1889 20.8373 16.263 20.7611C16.4146 20.6069 16.4996 20.3992 16.4996 20.1829C16.4996 19.9666 16.4146 19.7589 16.263 19.6046Z" fill="white"/>
</svg>
