<svg width="24" height="24" viewBox="0 0 24 24" fill="none" xmlns="http://www.w3.org/2000/svg">
<path fill-rule="evenodd" clip-rule="evenodd" d="M2.73223 2.73223C3.20107 2.26339 3.83696 2 4.5 2H19.5C20.163 2 20.7989 2.26339 21.2678 2.73223C21.7366 3.20107 22 3.83696 22 4.5V12C22 12.5523 21.5523 13 21 13C20.4477 13 20 12.5523 20 12V4.5C20 4.36739 19.9473 4.24022 19.8536 4.14645C19.7598 4.05268 19.6326 4 19.5 4H4.5C4.36739 4 4.24021 4.05268 4.14645 4.14645C4.05268 4.24021 4 4.36739 4 4.5V19.5C4 19.6326 4.05268 19.7598 4.14645 19.8536C4.24022 19.9473 4.36739 20 4.5 20H12C12.5523 20 13 20.4477 13 21C13 21.5523 12.5523 22 12 22H4.5C3.83696 22 3.20107 21.7366 2.73223 21.2678C2.26339 20.7989 2 20.163 2 19.5V4.5C2 3.83696 2.26339 3.20107 2.73223 2.73223Z" fill="white"/>
<path fill-rule="evenodd" clip-rule="evenodd" d="M16 14C14.8954 14 14 14.8954 14 16C14 17.1046 14.8954 18 16 18C17.1046 18 18 17.1046 18 16C18 14.8954 17.1046 14 16 14ZM12 16C12 13.7909 13.7909 12 16 12C18.2091 12 20 13.7909 20 16C20 18.2091 18.2091 20 16 20C13.7909 20 12 18.2091 12 16Z" fill="white"/>
<path fill-rule="evenodd" clip-rule="evenodd" d="M6 8C6 7.44772 6.44772 7 7 7H17C17.5523 7 18 7.44772 18 8C18 8.55228 17.5523 9 17 9H7C6.44772 9 6 8.55228 6 8ZM6 12C6 11.4477 6.44772 11 7 11H11C11.5523 11 12 11.4477 12 12C12 12.5523 11.5523 13 11 13H7C6.44772 13 6 12.5523 6 12ZM17.7191 17.3753C18.0641 16.944 18.6934 16.8741 19.1247 17.2191L21.6247 19.2191C22.056 19.5641 22.1259 20.1934 21.7809 20.6247C21.4359 21.056 20.8066 21.1259 20.3753 20.7809L17.8753 18.7809C17.444 18.4359 17.3741 17.8066 17.7191 17.3753Z" fill="white"/>
</svg>
